<svg xmlns="http://www.w3.org/2000/svg" xmlns:xlink="http://www.w3.org/1999/xlink" width="215.853" height="109.802" viewBox="0 0 215.853 109.802"><defs><style>.a,.c{fill:#fff;}.a,.b{opacity:0.3;}.b,.d{fill:none;}.e{opacity:0.5;fill:url(#g);}.f,.g,.h{stroke:none;}.g{fill:#ffa200;}.h{fill:#1890ff;}.i{filter:url(#d);}.j{filter:url(#a);}</style><filter id="a"><feOffset input="SourceAlpha"/><feGaussianBlur stdDeviation="8" result="b"/><feFlood flood-color="#ffa200" result="c"/><feComposite operator="out" in="SourceGraphic" in2="b"/><feComposite operator="in" in="c"/><feComposite operator="in" in2="SourceGraphic"/></filter><filter id="d"><feOffset input="SourceAlpha"/><feGaussianBlur stdDeviation="6" result="e"/><feFlood flood-color="#1890ff" result="f"/><feComposite operator="out" in="SourceGraphic" in2="e"/><feComposite operator="in" in="f"/><feComposite operator="in" in2="SourceGraphic"/></filter><linearGradient id="g" x1="0.5" x2="0.5" y2="1" gradientUnits="objectBoundingBox"><stop offset="0" stop-color="#b471e5" stop-opacity="0"/><stop offset="1" stop-color="#b471e5"/></linearGradient></defs><g transform="translate(0 12)"><g data-type="innerShadowGroup"><g class="j" transform="matrix(1, 0, 0, 1, 0, -12)"><g class="a" transform="translate(0 33.12)"><path class="f" d="M107.927,0C48.321,0,0,17.164,0,38.342S48.321,76.685,107.927,76.685,215.853,59.521,215.853,38.342,167.533,0,107.927,0Z"/><path class="f" d="M 107.9267196655273 0.9999923706054688 C 93.40618896484375 0.9999923706054688 79.32205200195312 2.009910583496094 66.0655517578125 4.001686096191406 C 53.27680969238281 5.9232177734375 41.79730224609375 8.671966552734375 31.94590759277344 12.17166137695312 C 27.106689453125 13.89077377319336 22.71662902832031 15.78068923950195 18.89772033691406 17.78885650634766 C 15.06297302246094 19.80535507202148 11.77482604980469 21.95649719238281 9.1246337890625 24.18252182006836 C 6.459442138671875 26.42116165161133 4.418746948242188 28.75307846069336 3.059249877929688 31.11349487304688 C 1.692825317382812 33.48588562011719 1 35.91805267333984 1 38.34238433837891 C 1 40.76671600341797 1.692825317382812 43.19888305664062 3.059249877929688 45.57127380371094 C 4.418746948242188 47.93169021606445 6.459442138671875 50.26360702514648 9.1246337890625 52.50224304199219 C 11.77482604980469 54.728271484375 15.06297302246094 56.87940979003906 18.89772033691406 58.89591217041016 C 22.71662902832031 60.90407943725586 27.106689453125 62.79399490356445 31.94590759277344 64.51310729980469 C 41.79730224609375 68.01280212402344 53.27680969238281 70.76155090332031 66.0655517578125 72.68307495117188 C 79.32205200195312 74.67485809326172 93.40618896484375 75.68477630615234 107.9267196655273 75.68477630615234 C 122.4472503662109 75.68477630615234 136.5313873291016 74.67485809326172 149.7878875732422 72.68307495117188 C 162.5766296386719 70.76155090332031 174.0561370849609 68.01280212402344 183.9075317382812 64.51310729980469 C 188.7467498779297 62.79399490356445 193.1368103027344 60.90407943725586 196.9557189941406 58.89591217041016 C 200.7904663085938 56.87940979003906 204.07861328125 54.728271484375 206.7288055419922 52.50224304199219 C 209.3939971923828 50.26360702514648 211.4346923828125 47.93169021606445 212.794189453125 45.57127380371094 C 214.1606140136719 43.19888305664062 214.8534393310547 40.76671600341797 214.8534393310547 38.34238433837891 C 214.8534393310547 35.91805267333984 214.1606140136719 33.48588562011719 212.794189453125 31.11349487304688 C 211.4346923828125 28.75307846069336 209.3939971923828 26.42116165161133 206.7288055419922 24.18252182006836 C 204.07861328125 21.95649719238281 200.7904663085938 19.80535507202148 196.9557189941406 17.78885650634766 C 193.1368103027344 15.78068923950195 188.7467498779297 13.89077377319336 183.9075317382812 12.17166137695312 C 174.0561370849609 8.671966552734375 162.5766296386719 5.9232177734375 149.7878875732422 4.001686096191406 C 136.5313873291016 2.009910583496094 122.4472503662109 0.9999923706054688 107.9267196655273 0.9999923706054688 M 107.9267196655273 -7.62939453125e-06 C 167.5325622558594 -7.62939453125e-06 215.8534393310547 17.16413497924805 215.8534393310547 38.34238433837891 C 215.8534393310547 59.52063369750977 167.5325622558594 76.68477630615234 107.9267196655273 76.68477630615234 C 48.32089233398438 76.68477630615234 0 59.52063369750977 0 38.34238433837891 C 0 17.16413497924805 48.32089233398438 -7.62939453125e-06 107.9267196655273 -7.62939453125e-06 Z"/></g></g><g class="b" transform="translate(0 21.117)"><path class="f" d="M107.927,0C48.321,0,0,17.164,0,38.342S48.321,76.685,107.927,76.685,215.853,59.521,215.853,38.342,167.533,0,107.927,0Z"/><path class="g" d="M 107.9267196655273 0.9999923706054688 C 93.40618896484375 0.9999923706054688 79.32205200195312 2.009910583496094 66.0655517578125 4.001686096191406 C 53.27680969238281 5.9232177734375 41.79730224609375 8.671966552734375 31.94590759277344 12.17166137695312 C 27.106689453125 13.89077377319336 22.71662902832031 15.78068923950195 18.89772033691406 17.78885650634766 C 15.06297302246094 19.80535507202148 11.77482604980469 21.95649719238281 9.1246337890625 24.18252182006836 C 6.459442138671875 26.42116165161133 4.418746948242188 28.75307846069336 3.059249877929688 31.11349487304688 C 1.692825317382812 33.48588562011719 1 35.91805267333984 1 38.34238433837891 C 1 40.76671600341797 1.692825317382812 43.19888305664062 3.059249877929688 45.57127380371094 C 4.418746948242188 47.93169021606445 6.459442138671875 50.26360702514648 9.1246337890625 52.50224304199219 C 11.77482604980469 54.728271484375 15.06297302246094 56.87940979003906 18.89772033691406 58.89591217041016 C 22.71662902832031 60.90407943725586 27.106689453125 62.79399490356445 31.94590759277344 64.51310729980469 C 41.79730224609375 68.01280212402344 53.27680969238281 70.76155090332031 66.0655517578125 72.68307495117188 C 79.32205200195312 74.67485809326172 93.40618896484375 75.68477630615234 107.9267196655273 75.68477630615234 C 122.4472503662109 75.68477630615234 136.5313873291016 74.67485809326172 149.7878875732422 72.68307495117188 C 162.5766296386719 70.76155090332031 174.0561370849609 68.01280212402344 183.9075317382812 64.51310729980469 C 188.7467498779297 62.79399490356445 193.1368103027344 60.90407943725586 196.9557189941406 58.89591217041016 C 200.7904663085938 56.87940979003906 204.07861328125 54.728271484375 206.7288055419922 52.50224304199219 C 209.3939971923828 50.26360702514648 211.4346923828125 47.93169021606445 212.794189453125 45.57127380371094 C 214.1606140136719 43.19888305664062 214.8534393310547 40.76671600341797 214.8534393310547 38.34238433837891 C 214.8534393310547 35.91805267333984 214.1606140136719 33.48588562011719 212.794189453125 31.11349487304688 C 211.4346923828125 28.75307846069336 209.3939971923828 26.42116165161133 206.7288055419922 24.18252182006836 C 204.07861328125 21.95649719238281 200.7904663085938 19.80535507202148 196.9557189941406 17.78885650634766 C 193.1368103027344 15.78068923950195 188.7467498779297 13.89077377319336 183.9075317382812 12.17166137695312 C 174.0561370849609 8.671966552734375 162.5766296386719 5.9232177734375 149.7878875732422 4.001686096191406 C 136.5313873291016 2.009910583496094 122.4472503662109 0.9999923706054688 107.9267196655273 0.9999923706054688 M 107.9267196655273 -7.62939453125e-06 C 167.5325622558594 -7.62939453125e-06 215.8534393310547 17.16413497924805 215.8534393310547 38.34238433837891 C 215.8534393310547 59.52063369750977 167.5325622558594 76.68477630615234 107.9267196655273 76.68477630615234 C 48.32089233398438 76.68477630615234 0 59.52063369750977 0 38.34238433837891 C 0 17.16413497924805 48.32089233398438 -7.62939453125e-06 107.9267196655273 -7.62939453125e-06 Z"/></g></g><g data-type="innerShadowGroup"><g class="i" transform="matrix(1, 0, 0, 1, 0, -12)"><g class="c" transform="translate(31.24 43.53)"><path class="f" d="M76.685,0C34.328,0,0,12.288,0,27.455S34.328,54.91,76.685,54.91,153.37,42.622,153.37,27.455,119.041,0,76.685,0Z"/><path class="f" d="M 76.68476867675781 1 C 66.38095092773438 1 56.38794708251953 1.721942901611328 46.98330688476562 3.145782470703125 C 37.91509246826172 4.518703460693359 29.77720642089844 6.482143402099609 22.79574584960938 8.981563568115234 C 15.86672973632812 11.46220016479492 10.44183349609375 14.33832168579102 6.671722412109375 17.53002166748047 C 2.908248901367188 20.71616363525391 0.9999847412109375 24.05542182922363 0.9999847412109375 27.45504188537598 C 0.9999847412109375 30.85466194152832 2.908248901367188 34.19392395019531 6.671722412109375 37.38006210327148 C 10.44183349609375 40.57176208496094 15.86672973632812 43.44788360595703 22.79574584960938 45.92852020263672 C 29.77720642089844 48.42794036865234 37.91509246826172 50.39138031005859 46.98330688476562 51.76430130004883 C 56.38794708251953 53.18814086914062 66.38095092773438 53.91007995605469 76.68476867675781 53.91007995605469 C 86.98858642578125 53.91007995605469 96.98159027099609 53.18814086914062 106.38623046875 51.76430130004883 C 115.4544525146484 50.39138031005859 123.5923080444336 48.42794036865234 130.5737609863281 45.92852020263672 C 137.5027923583984 43.44788360595703 142.9276885986328 40.57176208496094 146.6977844238281 37.38006210327148 C 150.4612731933594 34.19392395019531 152.3695220947266 30.85466194152832 152.3695220947266 27.45504188537598 C 152.3695220947266 24.05542182922363 150.4612731933594 20.71616363525391 146.6977844238281 17.53002166748047 C 142.9276885986328 14.33832168579102 137.5027923583984 11.46220016479492 130.5737609863281 8.981563568115234 C 123.5923080444336 6.482143402099609 115.4544525146484 4.518703460693359 106.38623046875 3.145782470703125 C 96.98159027099609 1.721942901611328 86.98858642578125 1 76.68476867675781 1 M 76.68476867675781 0 C 119.0412673950195 0 153.3695220947266 12.28850173950195 153.3695220947266 27.45504188537598 C 153.3695220947266 42.62158203125 119.0412673950195 54.91008377075195 76.68476867675781 54.91008377075195 C 34.32826995849609 54.91008377075195 -1.52587890625e-05 42.62158203125 -1.52587890625e-05 27.45504188537598 C -1.52587890625e-05 12.28850173950195 34.32826995849609 0 76.68476867675781 0 Z"/></g></g><g class="d" transform="translate(31.242 31.531)"><path class="f" d="M76.685,0C34.328,0,0,12.288,0,27.455S34.328,54.91,76.685,54.91,153.37,42.622,153.37,27.455,119.041,0,76.685,0Z"/><path class="h" d="M 76.68476867675781 1 C 66.38095092773438 1 56.38794708251953 1.721942901611328 46.98330688476562 3.145782470703125 C 37.91509246826172 4.518703460693359 29.77720642089844 6.482143402099609 22.79574584960938 8.981563568115234 C 15.86672973632812 11.46220016479492 10.44183349609375 14.33832168579102 6.671722412109375 17.53002166748047 C 2.908248901367188 20.71616363525391 0.9999847412109375 24.05542182922363 0.9999847412109375 27.45504188537598 C 0.9999847412109375 30.85466194152832 2.908248901367188 34.19392395019531 6.671722412109375 37.38006210327148 C 10.44183349609375 40.57176208496094 15.86672973632812 43.44788360595703 22.79574584960938 45.92852020263672 C 29.77720642089844 48.42794036865234 37.91509246826172 50.39138031005859 46.98330688476562 51.76430130004883 C 56.38794708251953 53.18814086914062 66.38095092773438 53.91007995605469 76.68476867675781 53.91007995605469 C 86.98858642578125 53.91007995605469 96.98159027099609 53.18814086914062 106.38623046875 51.76430130004883 C 115.4544525146484 50.39138031005859 123.5923080444336 48.42794036865234 130.5737609863281 45.92852020263672 C 137.5027923583984 43.44788360595703 142.9276885986328 40.57176208496094 146.6977844238281 37.38006210327148 C 150.4612731933594 34.19392395019531 152.3695220947266 30.85466194152832 152.3695220947266 27.45504188537598 C 152.3695220947266 24.05542182922363 150.4612731933594 20.71616363525391 146.6977844238281 17.53002166748047 C 142.9276885986328 14.33832168579102 137.5027923583984 11.46220016479492 130.5737609863281 8.981563568115234 C 123.5923080444336 6.482143402099609 115.4544525146484 4.518703460693359 106.38623046875 3.145782470703125 C 96.98159027099609 1.721942901611328 86.98858642578125 1 76.68476867675781 1 M 76.68476867675781 0 C 119.0412673950195 0 153.3695220947266 12.28850173950195 153.3695220947266 27.45504188537598 C 153.3695220947266 42.62158203125 119.0412673950195 54.91008377075195 76.68476867675781 54.91008377075195 C 34.32826995849609 54.91008377075195 -1.52587890625e-05 42.62158203125 -1.52587890625e-05 27.45504188537598 C -1.52587890625e-05 12.28850173950195 34.32826995849609 0 76.68476867675781 0 Z"/></g></g><path class="e" d="M48.283,0C21.614,0,0,8.057,0,17.988S21.614,35.976,48.283,35.976s48.283-8.057,48.283-17.988S74.952,0,48.283,0Z" transform="translate(59.644 41.945)"/><path class="e" d="M37.348,68.321H58.28L96.31,0H0Z" transform="translate(59.642 0)"/></g></svg>