<svg xmlns="http://www.w3.org/2000/svg" width="180" height="149.668" viewBox="0 0 180 149.668"><defs><style>.a{fill:#1890ff;opacity:0.1;}</style></defs><path class="a" d="M155.261,64.5a28.06,28.06,0,0,0-12.37,2.6L70.729,103.926c-6.809,3.485-6.809,9.166,0,12.632l72.143,36.827a30.785,30.785,0,0,0,24.759,0l72.163-36.827c6.809-3.485,6.809-9.166,0-12.632L167.651,67.1A28.212,28.212,0,0,0,155.261,64.5Zm0,121.17a34.624,34.624,0,0,1-15.472-3.385L69.1,146.224a7.144,7.144,0,0,1-3.1-9.489,6.879,6.879,0,0,1,9.307-3.163l70.692,36.081c4.875,2.478,13.7,2.478,18.575,0l70.672-36.081a6.856,6.856,0,0,1,9.287,3.163,7.144,7.144,0,0,1-3.1,9.489l-70.692,36.061a34.594,34.594,0,0,1-15.472,3.385Zm0,28.5a34.624,34.624,0,0,1-15.472-3.384L69.1,174.7a7.139,7.139,0,0,1-3.1-9.469,6.873,6.873,0,0,1,9.287-3.163l70.692,36.081c4.875,2.478,13.7,2.478,18.575,0l70.692-36.081a6.856,6.856,0,0,1,9.287,3.163,7.144,7.144,0,0,1-3.1,9.489l-70.692,36.061a34.355,34.355,0,0,1-15.472,3.384Zm0,0" transform="translate(-65.261 -64.5)"/></svg>