<svg xmlns="http://www.w3.org/2000/svg" xmlns:xlink="http://www.w3.org/1999/xlink" width="174.232" height="156.368"
  viewBox="0 0 174.232 156.368">
  <defs>
    <style>
      .a {
        opacity: 0.2;
      }

      .b {
        fill: url(#a);
      }
    </style>
    <linearGradient id="a" x1="1" y1="0.308" x2="0" y2="0.308" gradientUnits="objectBoundingBox">
      <stop offset="0" stop-color="#aa63e0" />
      <stop offset="1" stop-color="#7c54c5" />
    </linearGradient>
  </defs>
  <g class="a" transform="translate(0 -2.475)">
    <path class="b"
      d="M384.7,547.215a3.409,3.409,0,0,0,3.6-3.6v-54.54a27.333,27.333,0,0,0-25.629-28.028H335.65a27.27,27.27,0,0,0-25.566,28.028v54.54a3.409,3.409,0,0,0,3.6,3.6Z"
      transform="translate(-262.608 -388.379)" />
    <path class="b"
      d="M32.01,357.23a3.346,3.346,0,0,0,3.535-3.6V296.819a2.841,2.841,0,0,0-.694-2.9,2.9,2.9,0,0,0-2.525-1.073H21.342A21.526,21.526,0,0,0,.006,314.115v39.39a3.409,3.409,0,0,0,3.535,3.6H32.01Zm137.55,0a3.409,3.409,0,0,0,3.6-3.6V314.115a21.463,21.463,0,0,0-21.336-21.589H140.838c-.758,0-2.146.316-2.525,1.073a7.259,7.259,0,0,0-.694,2.9v56.813a3.346,3.346,0,0,0,3.535,3.6ZM148.6,287.224a25.25,25.25,0,1,0-24.871-25.25,24.935,24.935,0,0,0,24.871,25.25Zm-123.347,0a24.871,24.871,0,1,0-17.722-7.418,24.873,24.873,0,0,0,17.722,7.418Z"
      transform="translate(0 -198.393)" />
    <path class="b" d="M388.338,66.863a32.131,32.131,0,1,0-22.728-9.545,32.068,32.068,0,0,0,22.728,9.545Z"
      transform="translate(-301.788 0)" />
  </g>
</svg>