<svg xmlns="http://www.w3.org/2000/svg" width="146.325" height="160.042" viewBox="0 0 146.325 160.042"><defs><style>.a{fill:#41c985;opacity:0.237;}</style></defs><path class="a" d="M269.93,128.745H231.807c-4.678,0-8.415,4.07-8.415,9.1s3.746,9.123,8.415,9.123h38.358c4.441,0,8.185-4.081,8.185-9.123s-3.74-9.1-8.419-9.1Zm22.113,9.145c0,11.854-2.177,18.291-13.718,18.291H223.454c-11.49,0-13.718-8.473-13.718-18.291H191.445a13.333,13.333,0,0,0-13.718,13.718V275.069c0,9.065,4.934,13.718,13.718,13.718H310.334c7.328,0,13.718-4.468,13.718-13.718V151.608c0-8.924-5.109-13.718-13.718-13.718Zm-4.483,114.3H215.13c-2.668,0-5.332-2.74-5.332-4.974s2.255-4.137,4.925-4.137h72.22c2.668,0,4.923,1.735,5.126,4.137,0,2.237-1.842,4.974-4.51,4.974Zm-.96-32.044H214.05a4.545,4.545,0,0,1-4.376-4.637,4.92,4.92,0,0,1,4.932-4.472h72.343a5.141,5.141,0,0,1,5.135,4.472c0,2.237-2.816,4.637-5.484,4.637Zm0-32H214.05a4.544,4.544,0,0,1-4.376-4.635,4.92,4.92,0,0,1,4.932-4.474h72.343a5.141,5.141,0,0,1,5.135,4.474c0,2.235-2.816,4.635-5.484,4.635Zm0,0" transform="translate(-177.727 -128.745)"/></svg>