<svg xmlns="http://www.w3.org/2000/svg" width="165.612" height="149.962" viewBox="0 0 165.612 149.962"><defs><style>.a{fill:#ffa200;opacity:0.25;}</style></defs><path class="a" d="M222.111,160.441h-.1c-.683-6-4.782-10.641-9.792-10.641H177.272c-4.989,0-9.088,4.637-9.792,10.641h-.145v40.389h.041v11.1c0,.207-.041.393-.041.58v76.616h.145c.683,6,4.782,10.641,9.792,10.641h34.965c4.989,0,9.088-4.637,9.792-10.641h.1v-.911h.041V200.1h-.041V189.961c0-.186.041-.352.041-.538V162.2c0-.186-.041-.352-.041-.538v-1.221ZM181.164,168h27.16v69.185h-27.16Zm20.991,113.817a14.871,14.871,0,1,1,7.432-12.876A14.812,14.812,0,0,1,202.155,281.814Zm51.505-18.88a6.941,6.941,0,1,0,3.457,6A6.881,6.881,0,0,0,253.661,262.934Zm-55.459,0a6.937,6.937,0,1,0,3.457,6A6.881,6.881,0,0,0,198.2,262.934Zm79.411-73.511V162.2c0-.186-.041-.352-.041-.538v-1.221h-.1c-.7-6-4.782-10.641-9.792-10.641H232.711c-4.989,0-9.088,4.637-9.771,10.641h-.145v40.389h.041v11.1c0,.207-.041.393-.041.58v76.616h.145c.683,6,4.782,10.641,9.771,10.641h34.965c4.989,0,9.088-4.637,9.792-10.641h.1v-.911h.041V200.1h-.041V189.961c0-.186.041-.352.041-.538ZM236.623,168h27.16v69.185h-27.16Zm21.012,113.817a14.889,14.889,0,1,1,7.432-12.9A14.851,14.851,0,0,1,257.635,281.814Zm-118.226-19.77a6.894,6.894,0,1,0,6.873,6.894A6.874,6.874,0,0,0,139.409,262.044Zm27.347-101.6h-.1c-.683-6-4.782-10.641-9.771-10.641H121.916c-5.01,0-9.088,4.637-9.792,10.641H112v40.389h.041v11.1c0,.207-.041.393-.041.58v76.616h.145c.7,6,4.782,10.641,9.792,10.641H156.9c5.01,0,9.088-4.637,9.771-10.641h.1v-.911h.041V200.1h-.041V189.961c0-.186.041-.352.041-.538V162.2c0-.186-.041-.352-.041-.538v-1.221ZM125.829,168h27.16v69.185h-27.16Zm13.58,115.8a14.864,14.864,0,1,1,14.822-14.864A14.847,14.847,0,0,1,139.409,283.8Z" transform="translate(-112 -149.8)"/></svg>