<svg xmlns="http://www.w3.org/2000/svg" width="80" height="80" viewBox="0 0 80 80"><defs><style>.a{opacity:0.1;}.b{fill:none;}.c{fill:#41c985;}</style></defs><g class="a"><path class="b" d="M0,0H80V80H0Z"/><path class="c" d="M35.423,2a3.342,3.342,0,0,1,3.342,3.342V15.369a3.342,3.342,0,0,1-6.685,0V5.342A3.342,3.342,0,0,1,35.423,2Zm0,50.135a3.342,3.342,0,0,1,3.342,3.342V65.5a3.342,3.342,0,0,1-6.685,0V55.477A3.342,3.342,0,0,1,35.423,52.135ZM68.847,35.423A3.342,3.342,0,0,1,65.5,38.766H55.477a3.342,3.342,0,0,1,0-6.685H65.5A3.342,3.342,0,0,1,68.847,35.423Zm-50.135,0a3.342,3.342,0,0,1-3.342,3.342H5.342a3.342,3.342,0,0,1,0-6.685H15.369A3.342,3.342,0,0,1,18.712,35.423ZM59.057,59.057a3.342,3.342,0,0,1-4.726,0l-7.089-7.089a3.342,3.342,0,1,1,4.726-4.726l7.089,7.086a3.342,3.342,0,0,1,0,4.729ZM23.6,23.6a3.342,3.342,0,0,1-4.726,0l-7.086-7.086a3.343,3.343,0,1,1,4.726-4.729L23.6,18.879a3.342,3.342,0,0,1,0,4.726ZM11.793,59.057a3.342,3.342,0,0,1,0-4.726l7.089-7.089a3.342,3.342,0,1,1,4.726,4.726l-7.086,7.089a3.342,3.342,0,0,1-4.729,0ZM47.242,23.6a3.342,3.342,0,0,1,0-4.726l7.086-7.089a3.343,3.343,0,1,1,4.729,4.726L51.968,23.6a3.342,3.342,0,0,1-4.726,0Z" transform="translate(4.577 4.577)"/></g></svg>