<svg xmlns="http://www.w3.org/2000/svg" width="154.981" height="154.981" viewBox="0 0 154.981 154.981"><defs><style>.a{fill:#db3232;opacity:0.161;}</style></defs><path class="a" d="M118.236,16.5h31a7.749,7.749,0,0,1,7.749,7.749V148.232a7.749,7.749,0,0,1-7.749,7.749H9.749A7.749,7.749,0,0,1,2,148.232V24.247A7.749,7.749,0,0,1,9.749,16.5h31V1h15.5V16.5h46.494V1h15.5ZM17.5,62.992v77.49H141.483V62.992ZM33,78.49h15.5v15.5H33Zm0,31h15.5v15.5H33Zm31-31h61.992v15.5H63.992Zm0,31h38.745v15.5H63.992Z" transform="translate(-2 -1)"/></svg>