<svg xmlns="http://www.w3.org/2000/svg" width="18" height="18" viewBox="0 0 18 18"><defs><style>.a{fill:none;}.b{fill:#999;}</style></defs><path class="a" d="M0,0H18V18H0Z"/><path class="b" d="M3.5,12.5v3h3V17H2V12.5Zm13.5,0V17H12.5V15.5h3v-3ZM6.125,5.75A3.376,3.376,0,0,0,8.75,9.042V13.25h1.5V9.041A3.376,3.376,0,0,0,12.875,5.75h1.5a4.875,4.875,0,0,1-2.625,4.326V14.75H7.25V10.076A4.875,4.875,0,0,1,4.625,5.75ZM9.5,4.25A1.875,1.875,0,1,1,7.625,6.125,1.875,1.875,0,0,1,9.5,4.25ZM6.5,2V3.5h-3v3H2V2ZM17,2V6.5H15.5v-3h-3V2Z" transform="translate(-0.5 -0.5)"/></svg>