<svg xmlns="http://www.w3.org/2000/svg" width="40" height="40" viewBox="0 0 40 40"><defs><style>.a{fill:none;}.b{fill:#1890ff;}</style></defs><path class="a" d="M0,0H40V40H0Z"/><path class="b" d="M7.718,19.5l3.047,3.048,2.36-2.36-3.05-3.045,2.357-2.357,3.048,3.047,2.357-2.357-3.045-3.048,2.357-2.357,3.043,3.05,2.358-2.358L19.5,7.719l4.715-4.713a1.667,1.667,0,0,1,2.357,0l7.07,7.07a1.667,1.667,0,0,1,0,2.357L12.431,33.644a1.667,1.667,0,0,1-2.357,0L3,26.574a1.667,1.667,0,0,1,0-2.357Zm14.142,9.427,7.072-7.07,4.393,4.393v7.072h-7.07l-4.4-4.4ZM7.718,14.787,3,10.074A1.667,1.667,0,0,1,3,7.716L7.718,3a1.667,1.667,0,0,1,2.357,0l4.717,4.713Z" transform="translate(1.676 1.676)"/></svg>