<svg xmlns="http://www.w3.org/2000/svg" width="40" height="40" viewBox="0 0 40 40"><defs><style>.a{fill:none;}.b{fill:#41c985;}</style></defs><path class="a" d="M0,0H40V40H0Z"/><path class="b" d="M31.824,16.723l2,1.2a.833.833,0,0,1,0,1.43L18.352,28.639,2.877,19.354a.833.833,0,0,1,0-1.43l2-1.2,13.472,8.083Zm0,7.833,2,1.2a.833.833,0,0,1,0,1.43L19.21,35.958a1.667,1.667,0,0,1-1.717,0L2.877,27.188a.833.833,0,0,1,0-1.43l2-1.2,13.472,8.083,13.472-8.083ZM19.209,1.4l14.618,8.77a.833.833,0,0,1,0,1.43L18.352,20.889,2.877,11.6a.833.833,0,0,1,0-1.43L17.494,1.4a1.667,1.667,0,0,1,1.717,0Z" transform="translate(1.648 0.777)"/></svg>