<svg xmlns="http://www.w3.org/2000/svg" width="18" height="18" viewBox="0 0 18 18"><defs><style>.a{fill:none;}.b{fill:#999;}</style></defs><path class="a" d="M0,0H18V18H0Z"/><path class="b" d="M5.375,9.25A3.375,3.375,0,1,1,8.75,5.875,3.375,3.375,0,0,1,5.375,9.25Zm.375,7.5a3.375,3.375,0,1,1,3.375-3.375A3.375,3.375,0,0,1,5.75,16.75Zm7.5-7.5a3.375,3.375,0,1,1,3.375-3.375A3.375,3.375,0,0,1,13.25,9.25Zm0,7.5a3.375,3.375,0,1,1,3.375-3.375A3.375,3.375,0,0,1,13.25,16.75Zm-7.875-9A1.875,1.875,0,1,0,3.5,5.875,1.875,1.875,0,0,0,5.375,7.75Zm.375,7.5a1.875,1.875,0,1,0-1.875-1.875A1.875,1.875,0,0,0,5.75,15.25Zm7.5-7.5a1.875,1.875,0,1,0-1.875-1.875A1.875,1.875,0,0,0,13.25,7.75Zm0,7.5a1.875,1.875,0,1,0-1.875-1.875A1.875,1.875,0,0,0,13.25,15.25Z" transform="translate(-0.5 -0.625)"/></svg>