<svg id="edit-box-line" xmlns="http://www.w3.org/2000/svg" width="18" height="18" viewBox="0 0 18 18">
  <path id="路径_679" data-name="路径 679" d="M0,0H18V18H0Z" fill="none"/>
  <path id="联合_53" data-name="联合 53" d="M12071.051-650v-2.5h-2.552v-1.667h2.552v-2.5h1.7v2.5h2.551v1.667h-2.551v2.5Zm-7.65-2.5a.843.843,0,0,1-.851-.834v-5h-1.7a.842.842,0,0,1-.851-.834v-5a.84.84,0,0,1,.851-.834h15.3a.842.842,0,0,1,.851.834v5a.843.843,0,0,1-.851.834h-11.9v4.166h2.552v1.667Zm-1.7-7.5h13.6v-3.335h-13.6Z" transform="translate(-12059.501 666.499)" fill="#2865e3"/>
</svg>
