<svg id="edit-box-line" xmlns="http://www.w3.org/2000/svg" width="18" height="18" viewBox="0 0 18 18">
  <path id="路径_679" data-name="路径 679" d="M0,0H18V18H0Z" fill="none"/>
  <path id="联合_52" data-name="联合 52" d="M12068.5-650v-2.5h-2.549v-1.667h2.549v-2.5h1.7v2.5h2.551v1.667h-2.551v2.5Zm-7.648-2.5a.841.841,0,0,1-.85-.834v-8.335a.841.841,0,0,1,.85-.834h2.549v-1.665a.841.841,0,0,1,.85-.834h11.9a.843.843,0,0,1,.852.834v5a.844.844,0,0,1-.852.834h-11.9a.843.843,0,0,1-.85-.834v-1.667h-1.7v6.667h2.551v1.667Zm4.25-7.5h10.2v-3.335h-10.2Z" transform="translate(-12059.502 666.5)" fill="#2865e3"/>
</svg>
