<svg xmlns="http://www.w3.org/2000/svg" width="18" height="18" viewBox="0 0 18 18"><defs><style>.a{fill:none;}.b{fill:#999;}</style></defs><path class="a" d="M0,0H18V18H0Z"/><path class="b" d="M5.75,4V1.75A.75.75,0,0,1,6.5,1h6a.75.75,0,0,1,.75.75V4h3a.75.75,0,0,1,.75.75v10.5a.75.75,0,0,1-.75.75H2.75A.75.75,0,0,1,2,15.25V4.75A.75.75,0,0,1,2.75,4Zm1.5,6H3.5v4.5h12V10H11.75v2.25H7.25ZM15.5,5.5H3.5v3H7.25V7h4.5V8.5H15.5Zm-6.75,3v2.25h1.5V8.5Zm-1.5-6V4h4.5V2.5Z" transform="translate(-0.5 -0.25)"/></svg>