<svg xmlns="http://www.w3.org/2000/svg" width="100" height="100" viewBox="0 0 100 100"><defs><style>.a,.d{fill:#ffa200;}.a,.b{opacity:0.1;}.c,.e{fill:none;}.e{stroke:#ffa200;opacity:0.2;}.f{stroke:none;}</style></defs><g transform="translate(-523 -210)"><circle class="a" cx="50" cy="50" r="50" transform="translate(523 210)"/><g class="b" transform="translate(527.591 214.591)"><path class="c" d="M0,0H90.818V90.818H0Z"/><path class="d" d="M39.861,2a3.786,3.786,0,0,1,3.786,3.786V17.144a3.786,3.786,0,0,1-7.572,0V5.786A3.786,3.786,0,0,1,39.861,2Zm0,56.791a3.786,3.786,0,0,1,3.786,3.786V73.936a3.786,3.786,0,0,1-7.572,0V62.577A3.786,3.786,0,0,1,39.861,58.791Zm37.861-18.93a3.786,3.786,0,0,1-3.786,3.786H62.577a3.786,3.786,0,0,1,0-7.572H73.936A3.786,3.786,0,0,1,77.722,39.861Zm-56.791,0a3.786,3.786,0,0,1-3.786,3.786H5.786a3.786,3.786,0,1,1,0-7.572H17.144A3.786,3.786,0,0,1,20.93,39.861Zm45.7,26.771a3.786,3.786,0,0,1-5.354,0l-8.03-8.03A3.786,3.786,0,1,1,58.6,53.248l8.03,8.027a3.786,3.786,0,0,1,0,5.357ZM26.473,26.473a3.786,3.786,0,0,1-5.354,0l-8.027-8.027a3.787,3.787,0,1,1,5.354-5.357l8.027,8.03a3.786,3.786,0,0,1,0,5.354ZM13.093,66.632a3.786,3.786,0,0,1,0-5.354l8.03-8.03A3.786,3.786,0,1,1,26.477,58.6l-8.027,8.03a3.786,3.786,0,0,1-5.357,0ZM53.248,26.473a3.786,3.786,0,0,1,0-5.354l8.027-8.03a3.787,3.787,0,1,1,5.357,5.354l-8.03,8.03a3.786,3.786,0,0,1-5.354,0Z" transform="translate(5.548 5.548)"/></g><g transform="translate(555.784 242.784)"><path class="c" d="M0,0H34.432V34.432H0Z"/><path class="d" d="M2.19,18.653a14.235,14.235,0,0,1,0-4.668,3.609,3.609,0,0,0,3.546-2.049A3.6,3.6,0,0,0,4.677,7.98a14.235,14.235,0,0,1,3.3-3.3,3.607,3.607,0,0,0,3.957,1.06A3.6,3.6,0,0,0,13.984,2.19a14.235,14.235,0,0,1,4.67,0A3.605,3.605,0,0,0,20.7,5.737a3.6,3.6,0,0,0,3.956-1.06,14.235,14.235,0,0,1,3.3,3.3,3.607,3.607,0,0,0-1.06,3.957,3.6,3.6,0,0,0,3.546,2.047,14.235,14.235,0,0,1,0,4.67A3.605,3.605,0,0,0,26.9,20.7a3.6,3.6,0,0,0,1.06,3.956,14.235,14.235,0,0,1-3.3,3.3A3.607,3.607,0,0,0,20.7,26.9a3.6,3.6,0,0,0-2.047,3.546,14.235,14.235,0,0,1-4.67,0A3.605,3.605,0,0,0,11.936,26.9a3.6,3.6,0,0,0-3.956,1.06,14.235,14.235,0,0,1-3.3-3.3A3.607,3.607,0,0,0,5.737,20.7,3.6,3.6,0,0,0,2.19,18.654Zm14.129,1.962a4.3,4.3,0,1,0-4.3-4.3A4.3,4.3,0,0,0,16.319,20.614Z" transform="translate(0.897 0.897)"/></g><g class="e" transform="translate(523 210)"><circle class="f" cx="50" cy="50" r="50"/><circle class="c" cx="50" cy="50" r="49.5"/></g></g></svg>