<svg xmlns="http://www.w3.org/2000/svg" width="18" height="18" viewBox="0 0 18 18"><defs><style>.a{fill:none;}.b{fill:#999;}</style></defs><path class="a" d="M0,0H18V18H0Z"/><path class="b" d="M9.75,1l6.163,1.369A.75.75,0,0,1,16.5,3.1v7.49a4.5,4.5,0,0,1-2,3.744L9.75,17.5,5,14.336a4.5,4.5,0,0,1-2-3.743V3.1a.75.75,0,0,1,.587-.732Zm0,1.537L4.5,3.7v6.889a3,3,0,0,0,1.336,2.5L9.75,15.7l3.914-2.61A3,3,0,0,0,15,10.592V3.7L9.75,2.537Zm3.339,3.88,1.061,1.06L9.377,12.25,6.2,9.068l1.06-1.061,2.121,2.121,3.712-3.712Z" transform="translate(-0.75 -0.25)"/></svg>