<svg xmlns="http://www.w3.org/2000/svg" width="8" height="160" viewBox="0 0 8 160"><defs><style>.a{fill:#1890ff;opacity:0.3;}.b{fill:#fff;stroke:#fff;stroke-miterlimit:10;stroke-width:0.5px;}</style></defs><g transform="translate(-208 -352)"><path class="a" d="M0,0,8,16V144L0,160Z" transform="translate(208 352)"/><path class="b" d="M5,0a.617.617,0,0,0-.324.08.367.367,0,0,0-.1.092L.12,3.478a.247.247,0,0,0,.035.441A.641.641,0,0,0,.815,3.9L5,.788,9.186,3.9a.641.641,0,0,0,.66.023.248.248,0,0,0,.035-.441L5.429.172a.367.367,0,0,0-.1-.092A.614.614,0,0,0,5.011,0Z" transform="translate(210 437) rotate(-90)"/></g></svg>