<svg xmlns="http://www.w3.org/2000/svg" width="40" height="40" viewBox="0 0 40 40"><defs><style>.a{fill:none;}.b{fill:#af71e5;}</style></defs><path class="a" d="M0,0H40V40H0Z"/><path class="b" d="M4.795,32V22a13.333,13.333,0,0,1,26.667,0V32h1.667v3.333h-30V32ZM8.128,22h3.333a6.667,6.667,0,0,1,6.667-6.667V12a10,10,0,0,0-10,10ZM16.461,2h3.333V7H16.461Zm14.63,4.68,2.357,2.357-3.533,3.535-2.358-2.357L31.091,6.68ZM2.808,9.037,5.165,6.68,8.7,10.213l-2.355,2.36Z" transform="translate(1.872 1.333)"/></svg>