<svg id="用户管理" xmlns="http://www.w3.org/2000/svg" width="18" height="18" viewBox="0 0 18 18">
  <path id="路径_4557" data-name="路径 4557" d="M0,0H18V18H0Z" fill="none"/>
  <path id="路径_4558" data-name="路径 4558" d="M15.75,17H5.25A2.25,2.25,0,0,1,3,14.75V4.25A2.25,2.25,0,0,1,5.25,2h10.5a.75.75,0,0,1,.75.75v13.5A.75.75,0,0,1,15.75,17ZM15,15.5V14H5.25a.75.75,0,0,0,0,1.5ZM4.5,12.628a2.259,2.259,0,0,1,.75-.128H15v-9H5.25a.75.75,0,0,0-.75.75ZM9.75,8a1.5,1.5,0,1,1,1.5-1.5A1.5,1.5,0,0,1,9.75,8ZM7.5,11A2.25,2.25,0,0,1,12,11Z" transform="translate(-0.75 -0.5)" fill="#999"/>
</svg>
