<svg xmlns="http://www.w3.org/2000/svg" width="30" height="30" viewBox="0 0 30 30"><defs><style>.a{fill:none;}.b{fill:#41c985;}</style></defs><path class="a" d="M0,0H30V30H0Z"/><path class="b" d="M2.165,16.509a12.4,12.4,0,0,1,0-4.067,3.144,3.144,0,0,0,3.09-1.785A3.141,3.141,0,0,0,4.332,7.21,12.4,12.4,0,0,1,7.209,4.332a3.143,3.143,0,0,0,3.448.923,3.141,3.141,0,0,0,1.784-3.09,12.4,12.4,0,0,1,4.069,0,3.141,3.141,0,0,0,1.784,3.09,3.141,3.141,0,0,0,3.447-.923,12.4,12.4,0,0,1,2.878,2.877,3.143,3.143,0,0,0-.923,3.448,3.141,3.141,0,0,0,3.09,1.784,12.4,12.4,0,0,1,0,4.069,3.141,3.141,0,0,0-3.09,1.784,3.141,3.141,0,0,0,.923,3.447,12.4,12.4,0,0,1-2.877,2.878,3.143,3.143,0,0,0-3.448-.923,3.141,3.141,0,0,0-1.784,3.09,12.4,12.4,0,0,1-4.069,0,3.141,3.141,0,0,0-1.784-3.09,3.141,3.141,0,0,0-3.447.923,12.4,12.4,0,0,1-2.878-2.877,3.143,3.143,0,0,0,.923-3.448,3.141,3.141,0,0,0-3.09-1.784Zm12.31,1.709a3.742,3.742,0,1,0-3.742-3.742A3.742,3.742,0,0,0,14.475,18.218Z" transform="translate(0.525 0.525)"/></svg>