<svg xmlns="http://www.w3.org/2000/svg" width="18" height="18" viewBox="0 0 18 18"><defs><style>.a{fill:none;}.b{fill:#999;}</style></defs><path class="a" d="M0,0H18V18H0Z"/><path class="b" d="M12,3a.75.75,0,0,1,.75.75v3A.75.75,0,0,1,12,7.5H10.5V9h3a.75.75,0,0,1,.75.75V12h1.5a.75.75,0,0,1,.75.75v3a.75.75,0,0,1-.75.75h-4.5a.75.75,0,0,1-.75-.75v-3a.75.75,0,0,1,.75-.75h1.5V10.5h-6V12h1.5a.75.75,0,0,1,.75.75v3a.75.75,0,0,1-.75.75H3.75A.75.75,0,0,1,3,15.75v-3A.75.75,0,0,1,3.75,12h1.5V9.75A.75.75,0,0,1,6,9H9V7.5H7.5a.75.75,0,0,1-.75-.75v-3A.75.75,0,0,1,7.5,3ZM7.5,13.5h-3V15h3Zm7.5,0H12V15h3Zm-3.75-9h-3V6h3Z" transform="translate(-0.75 -0.75)"/></svg>