<svg xmlns="http://www.w3.org/2000/svg" width="100" height="100" viewBox="0 0 100 100"><defs><style>.a,.d{fill:#41c985;}.a,.b{opacity:0.1;}.c,.e{fill:none;}.e{stroke:#41c985;opacity:0.2;}.f{stroke:none;}</style></defs><g transform="translate(-523 -210)"><circle class="a" cx="50" cy="50" r="50" transform="translate(523 210)"/><g class="b" transform="translate(527.545 214.545)"><path class="c" d="M0,0H90.909V90.909H0Z"/><path class="d" d="M39.981,2a3.8,3.8,0,0,1,3.8,3.8V17.192a3.8,3.8,0,0,1-7.6,0V5.8A3.8,3.8,0,0,1,39.981,2Zm0,56.972a3.8,3.8,0,0,1,3.8,3.8V74.164a3.8,3.8,0,0,1-7.6,0V62.77A3.8,3.8,0,0,1,39.981,58.972ZM77.962,39.981a3.8,3.8,0,0,1-3.8,3.8H62.77a3.8,3.8,0,0,1,0-7.6H74.164A3.8,3.8,0,0,1,77.962,39.981Zm-56.972,0a3.8,3.8,0,0,1-3.8,3.8H5.8a3.8,3.8,0,0,1,0-7.6H17.192A3.8,3.8,0,0,1,20.991,39.981ZM66.837,66.837a3.8,3.8,0,0,1-5.371,0l-8.056-8.056a3.8,3.8,0,1,1,5.371-5.371l8.055,8.052a3.8,3.8,0,0,1,0,5.374ZM26.551,26.551a3.8,3.8,0,0,1-5.371,0L13.128,18.5A3.8,3.8,0,1,1,18.5,13.125l8.052,8.056a3.8,3.8,0,0,1,0,5.371ZM13.128,66.837a3.8,3.8,0,0,1,0-5.371l8.056-8.056a3.8,3.8,0,1,1,5.371,5.371L18.5,66.837a3.8,3.8,0,0,1-5.374,0ZM53.411,26.551a3.8,3.8,0,0,1,0-5.371l8.052-8.056A3.8,3.8,0,1,1,66.837,18.5l-8.056,8.056a3.8,3.8,0,0,1-5.371,0Z" transform="translate(5.473 5.473)"/></g><g transform="translate(555.955 242.955)"><path class="c" d="M0,0H34.091V34.091H0Z"/><path class="d" d="M2.188,18.488a14.094,14.094,0,0,1,0-4.621A3.573,3.573,0,0,0,5.7,11.838,3.569,3.569,0,0,0,4.651,7.921,14.094,14.094,0,0,1,7.92,4.651,3.572,3.572,0,0,0,11.838,5.7a3.569,3.569,0,0,0,2.027-3.511,14.094,14.094,0,0,1,4.624,0A3.57,3.57,0,0,0,20.516,5.7a3.569,3.569,0,0,0,3.917-1.049A14.094,14.094,0,0,1,27.7,7.92a3.572,3.572,0,0,0-1.049,3.918,3.569,3.569,0,0,0,3.511,2.027,14.094,14.094,0,0,1,0,4.624,3.57,3.57,0,0,0-3.511,2.027A3.569,3.569,0,0,0,27.7,24.433a14.094,14.094,0,0,1-3.269,3.27,3.572,3.572,0,0,0-3.918-1.049,3.569,3.569,0,0,0-2.027,3.511,14.094,14.094,0,0,1-4.624,0,3.57,3.57,0,0,0-2.027-3.511A3.569,3.569,0,0,0,7.921,27.7a14.094,14.094,0,0,1-3.27-3.269A3.572,3.572,0,0,0,5.7,20.516a3.569,3.569,0,0,0-3.511-2.027ZM16.177,20.43a4.253,4.253,0,1,0-4.253-4.253A4.253,4.253,0,0,0,16.177,20.43Z" transform="translate(0.868 0.868)"/></g><g class="e" transform="translate(523 210)"><circle class="f" cx="50" cy="50" r="50"/><circle class="c" cx="50" cy="50" r="49.5"/></g></g></svg>