<svg xmlns="http://www.w3.org/2000/svg" xmlns:xlink="http://www.w3.org/1999/xlink" width="32" height="32" viewBox="0 0 32 32" fill="none"><path id="并集" fill-rule="evenodd" style="fill:#FFFFFF" transform="translate(0 0)  rotate(0 16 16)" opacity="1" d="M32 16C32 24.82 24.87 32 16 32C10.65 32 5.94 29.33 3.02 25.31C3.52 25.26 3.96 25.21 4.46 25.21L6.04 25.21C8.07 25.21 10.01 25.86 11.79 26.8C12.24 27.05 12.78 27.2 13.32 27.2C15.21 27.2 16.69 25.66 16.64 23.83C16.64 22.04 15.06 20.56 13.28 20.61C12.73 20.66 12.24 20.76 11.79 21C10.35 21.8 8.82 22.29 7.18 22.29L3.32 22.29C2.58 22.29 1.88 22.19 1.14 21.99C0.4 20.11 0 18.13 0 16C0 13.92 0.4 11.94 1.14 10.11C2.38 9.66 3.62 9.36 4.95 9.36L6.54 9.36C8.57 9.36 10.5 10.01 12.28 10.95C12.73 11.2 13.28 11.34 13.82 11.34C15.7 11.34 17.19 9.81 17.14 7.98C17.14 6.19 15.55 4.71 13.77 4.76C13.23 4.8 12.73 4.9 12.28 5.15C10.85 5.94 9.31 6.44 7.68 6.44L3.17 6.44C6.09 2.53 10.75 0 16 0C24.87 0 32.05 7.18 32 16Z M12.5324 8.02638C12.5324 7.33638 13.0824 6.78638 13.7724 6.78638C14.4524 6.78638 15.0124 7.33638 15.0124 8.02638C15.0124 8.70638 14.4524 9.26638 13.7724 9.26638C13.0824 9.26638 12.5324 8.70638 12.5324 8.02638Z M8.22526 19.2175C7.67526 19.5175 7.03526 19.6675 6.38526 19.6675C4.21526 19.6675 2.47526 17.8775 2.52526 15.7075C2.57526 13.5775 4.40526 11.8375 6.48526 11.8875C7.13526 11.8875 7.67526 12.0875 8.22526 12.3375C9.90526 13.2275 11.7353 13.8175 13.6753 13.8175L18.1753 13.8175C20.1153 13.8175 21.9453 13.2275 23.6253 12.3375C24.1253 12.0375 24.7153 11.8875 25.3653 11.8875C27.4953 11.8375 29.3253 13.5775 29.3253 15.7075C29.3253 17.8775 27.5953 19.6675 25.4153 19.6675C24.7653 19.6675 24.1253 19.5175 23.5753 19.2175C21.4953 18.0775 19.2153 17.3375 16.8453 17.3375L14.9553 17.3375C12.5853 17.3375 10.3053 18.0775 8.22526 19.2175Z M6.29445 17.0867C5.49445 17.0867 4.85445 16.4467 4.85445 15.6567C4.85445 14.8567 5.49445 14.2167 6.29445 14.2167C7.08445 14.2167 7.72445 14.8567 7.72445 15.6567C7.72445 16.4467 7.08445 17.0867 6.29445 17.0867Z M25.316 17.0867C24.516 17.0867 23.876 16.4467 23.876 15.6567C23.876 14.8567 24.516 14.2167 25.316 14.2167C26.106 14.2167 26.796 14.8567 26.746 15.6567C26.746 16.4467 26.106 17.0867 25.316 17.0867Z M12.0371 23.8778C12.0371 23.1878 12.5871 22.6378 13.2771 22.6378C13.9571 22.6378 14.5171 23.1878 14.5171 23.8778C14.5171 24.5578 13.9571 25.1178 13.2771 25.1178C12.5871 25.1178 12.0371 24.5578 12.0371 23.8778Z " /></svg>