<svg xmlns="http://www.w3.org/2000/svg" width="18" height="18" viewBox="0 0 18 18"><defs><style>.a{fill:none;}.b{fill:#999;}</style></defs><path class="a" d="M0,0H18V18H0Z"/><path class="b" d="M12.5,15.5V3.5h-9V14.75a.75.75,0,0,0,.75.75ZM14.75,17H4.25A2.25,2.25,0,0,1,2,14.75v-12A.75.75,0,0,1,2.75,2h10.5a.75.75,0,0,1,.75.75V8h3v6.75A2.25,2.25,0,0,1,14.75,17ZM14,9.5v5.25a.75.75,0,0,0,1.5,0V9.5ZM5,5H9.5V9.5H5ZM6.5,6.5V8H8V6.5ZM5,10.25h6v1.5H5ZM5,12.5h6V14H5Z" transform="translate(-0.5 -0.5)"/></svg>