<svg xmlns="http://www.w3.org/2000/svg" width="18" height="18" viewBox="0 0 18 18"><defs><style>.a{fill:none;}.b{fill:#999;}</style></defs><path class="a" d="M0,0H18V18H0Z"/><path class="b" d="M3.7,15.5V11a6,6,0,1,1,12,0v4.5h.75V17H2.952V15.5Zm1.5,0h9V11a4.5,4.5,0,1,0-9,0ZM8.952,2h1.5V4.25h-1.5Zm6.583,2.106L16.6,5.167l-1.59,1.591L13.945,5.7l1.591-1.591ZM2.808,5.167,3.869,4.106,5.459,5.7,4.4,6.758ZM5.952,11A3.75,3.75,0,0,1,9.7,7.25v1.5A2.25,2.25,0,0,0,7.452,11Z" transform="translate(-0.702 -0.5)"/></svg>