<svg xmlns="http://www.w3.org/2000/svg" width="40" height="40" viewBox="0 0 40 40"><defs><style>.a{fill:none;}.b{fill:#ffa200;}</style></defs><path class="a" d="M0,0H40V40H0Z"/><path class="b" d="M17.333,22.667V36H4A13.333,13.333,0,0,1,17.333,22.667Zm0-1.667a10,10,0,1,1,10-10A10,10,0,0,1,17.333,21Zm4.325,9.687a5.85,5.85,0,0,1,0-2.705l-1.653-.955,1.667-2.887,1.653.955a5.827,5.827,0,0,1,2.342-1.353V21.833H29v1.908A5.82,5.82,0,0,1,31.342,25.1l1.653-.955,1.667,2.887-1.653.955a5.85,5.85,0,0,1,0,2.7l1.653.955-1.667,2.887-1.653-.955A5.827,5.827,0,0,1,29,34.925v1.908H25.667V34.925a5.827,5.827,0,0,1-2.342-1.353l-1.653.955L20.005,31.64l1.653-.953Zm5.675-3.02A1.667,1.667,0,1,0,29,29.333,1.667,1.667,0,0,0,27.333,27.667Z" transform="translate(2.667 0.667)"/></svg>