<svg id="用户管理" xmlns="http://www.w3.org/2000/svg" width="18" height="18" viewBox="0 0 18 18">
  <path id="路径_4561" data-name="路径 4561" d="M0,0H18V18H0Z" fill="none"/>
  <path id="路径_4562" data-name="路径 4562" d="M12,3.5H4.5v12H15v-9H12ZM3,2.744A.746.746,0,0,1,3.749,2h9L16.5,5.75V16.245a.75.75,0,0,1-.745.755H3.745A.75.75,0,0,1,3,16.256ZM9.75,9.125A1.875,1.875,0,1,1,11.625,7.25,1.875,1.875,0,0,1,9.75,9.125ZM6.4,13.25a3.375,3.375,0,0,1,6.709,0Z" transform="translate(-0.75 -0.5)" fill="#999"/>
</svg>
