<svg xmlns="http://www.w3.org/2000/svg" width="18" height="18" viewBox="0 0 18 18"><defs><style>.a{fill:none;}.b{fill:#999;}</style></defs><path class="a" d="M0,0H18V18H0Z"/><path class="b" d="M9.81,4.5h6.44a.75.75,0,0,1,.75.75v10.5a.75.75,0,0,1-.75.75H2.75A.75.75,0,0,1,2,15.75v-12A.75.75,0,0,1,2.75,3H8.31ZM3.5,4.5V15h12V6H9.19L7.69,4.5Zm3,3h6v3.678a2,2,0,0,1-.89,1.664L9.5,14.248,7.39,12.842a2,2,0,0,1-.89-1.664ZM8,11.178a.5.5,0,0,0,.223.416l1.277.851,1.277-.851A.5.5,0,0,0,11,11.178V9H8v2.178Z" transform="translate(-0.5 -0.75)"/></svg>