<svg xmlns="http://www.w3.org/2000/svg" width="40" height="40" viewBox="0 0 40 40"><defs><style>.a{fill:none;}.b{fill:#1890ff;}</style></defs><path class="a" d="M0,0H40V40H0Z"/><path class="b" d="M7.567,5.918A16.676,16.676,0,0,1,13.48,2.5,6.665,6.665,0,0,0,18.7,5.006,6.665,6.665,0,0,0,23.911,2.5a16.676,16.676,0,0,1,5.913,3.421,6.682,6.682,0,0,0,5.217,9.035,16.784,16.784,0,0,1,0,6.832,6.683,6.683,0,0,0-5.217,9.037,16.676,16.676,0,0,1-5.913,3.419,6.677,6.677,0,0,0-10.431,0,16.676,16.676,0,0,1-5.913-3.419A6.681,6.681,0,0,0,2.35,21.788a16.784,16.784,0,0,1,0-6.833A6.682,6.682,0,0,0,7.567,5.92ZM21.2,22.708a5.01,5.01,0,1,0-6.842-1.834A5.012,5.012,0,0,0,21.2,22.708Z" transform="translate(1.304 1.63)"/></svg>