<svg xmlns="http://www.w3.org/2000/svg" xmlns:xlink="http://www.w3.org/1999/xlink" width="198" height="172" viewBox="0 0 198 172"><defs><style>.a,.c,.e{fill:#fff;}.a,.b{opacity:0.3;}.b,.d,.f,.i{fill:none;}.b{stroke:#ffa200;}.d{stroke:#1890ff;}.e,.f{opacity:0.6;}.f{stroke:#b471e5;}.g{opacity:0.5;fill:url(#j);}.h{stroke:none;}.j{filter:url(#g);}.k{filter:url(#d);}.l{filter:url(#a);}</style><filter id="a"><feOffset input="SourceAlpha"/><feGaussianBlur stdDeviation="8" result="b"/><feFlood flood-color="#ffa200" result="c"/><feComposite operator="out" in="SourceGraphic" in2="b"/><feComposite operator="in" in="c"/><feComposite operator="in" in2="SourceGraphic"/></filter><filter id="d"><feOffset input="SourceAlpha"/><feGaussianBlur stdDeviation="6" result="e"/><feFlood flood-color="#1890ff" result="f"/><feComposite operator="out" in="SourceGraphic" in2="e"/><feComposite operator="in" in="f"/><feComposite operator="in" in2="SourceGraphic"/></filter><filter id="g"><feOffset input="SourceAlpha"/><feGaussianBlur stdDeviation="8" result="h"/><feFlood flood-color="#b471e5" result="i"/><feComposite operator="out" in="SourceGraphic" in2="h"/><feComposite operator="in" in="i"/><feComposite operator="in" in2="SourceGraphic"/></filter><linearGradient id="j" x1="0.5" x2="0.5" y2="1" gradientUnits="objectBoundingBox"><stop offset="0" stop-color="#b471e5" stop-opacity="0"/><stop offset="1" stop-color="#b471e5"/></linearGradient></defs><g transform="translate(-238 -153)"><g data-type="innerShadowGroup"><g class="l" transform="matrix(1, 0, 0, 1, 238, 153)"><ellipse class="a" cx="99" cy="40.5" rx="99" ry="40.5" transform="translate(0 91)"/></g><g class="b" transform="translate(238 244)"><ellipse class="h" cx="99" cy="40.5" rx="99" ry="40.5"/><ellipse class="i" cx="99" cy="40.5" rx="98.5" ry="40"/></g></g><g data-type="innerShadowGroup"><g class="k" transform="matrix(1, 0, 0, 1, 238, 153)"><ellipse class="c" cx="66" cy="29" rx="66" ry="29" transform="translate(33 102)"/></g><g class="d" transform="translate(271 255)"><ellipse class="h" cx="66" cy="29" rx="66" ry="29"/><ellipse class="i" cx="66" cy="29" rx="65.5" ry="28.5"/></g></g><g data-type="innerShadowGroup"><g class="j" transform="matrix(1, 0, 0, 1, 238, 153)"><ellipse class="e" cx="36" cy="19" rx="36" ry="19" transform="translate(63 113)"/></g><g class="f" transform="translate(301 266)"><ellipse class="h" cx="36" cy="19" rx="36" ry="19"/><ellipse class="i" cx="36" cy="19" rx="35.5" ry="18.5"/></g></g><path class="g" d="M0,0H101.735L61.564,128.864H39.451Z" transform="translate(286 165)"/></g></svg>